#!OML:ASF F:\VICON\USERDATA\INSTALL\rory3\rory3.ASF
:FULLY-SPECIFIED
:DEGREES
376
root 1.05585 17.9439 35.3214 -2.40309 -4.30582 -1.50239
lowerback 9.57445 1.1637 0.581129
upperback -0.360456 1.67209 0.974255
thorax -5.76475 0.820147 0.450052
lowerneck -15.9195 -2.81618 -1.88995
upperneck 18.7511 -3.77509 1.65208
head 8.53832 -1.74352 0.416341
rclavicle -1.36136e-014 6.4605e-015
rhumerus -27.4101 -21.3663 -78.4011
rradius 24.0066
rwrist 7.0485
rhand -16.4128 22.2966
rfingers 7.12502
rthumb 9.80195 -7.45526
lclavicle -1.36136e-014 6.4605e-015
lhumerus -31.3101 3.07682 83.9952
lradius 21.5368
lwrist 6.89216
lhand -25.8505 19.3303
lfingers 7.12502
lthumb 0.690089 49.3089
rfemur -8.81225 -3.64173 23.4054
rtibia 65.1643
rfoot -1.05445 -6.61296
rtoes 4.89677
lfemur -13.9574 -0.543977 -22.0116
ltibia 27.3538
lfoot -8.89892 -3.38603
ltoes 1.91636
377
root 1.06398 17.9524 35.4941 -2.519 -4.02406 -1.48301
lowerback 9.47196 1.04955 0.56199
upperback -0.16909 1.51773 1.04203
thorax -5.5073 0.746485 0.557415
lowerneck -16.3719 -2.89257 -1.99618
upperneck 18.9584 -3.84855 1.64626
head 8.69382 -1.7816 0.415552
rclavicle 1.38435e-014 5.06901e-015
rhumerus -27.3139 -21.716 -78.2935
rradius 23.7825
rwrist 7.72546
rhand -16.5297 21.6892
rfingers 7.12502
rthumb 9.6891 -8.06798
lclavicle 1.38435e-014 5.06901e-015
lhumerus -30.8111 2.50761 84.3833
lradius 21.5394
lwrist 9.0684
lhand -28.1231 13.6053
lfingers 7.12502
lthumb -1.50478 43.5797
rfemur -9.82084 -4.04746 23.3819
rtibia 65.8233
rfoot -2.99754 -7.10629
rtoes 0.878291
lfemur -13.1455 -0.791674 -22.1541
ltibia 27.2883
lfoot -9.37107 -3.21535
ltoes 1.81039
378
root 1.07802 17.9602 35.6664 -2.61883 -3.8163 -1.36039
lowerback 9.58398 0.900366 0.482382
upperback -0.15632 1.31137 1.04242
thorax -5.5573 0.64688 0.630044
lowerneck -16.4887 -2.78782 -1.72521
upperneck 19.0541 -3.68393 1.23869
head 8.7303 -1.72704 0.251666
rclavicle -6.05051e-015 -1.53064e-014
rhumerus -27.6228 -22.3921 -77.9482
rradius 23.3097
rwrist 8.68226
rhand -15.9802 21.8123
rfingers 7.12502
rthumb 10.2192 -7.91943
lclavicle -6.05051e-015 -1.53064e-014
lhumerus -30.4754 2.59743 84.1837
lradius 22.2582
lwrist 7.90413
lhand -26.266 18.395
lfingers 7.12502
lthumb 0.288835 48.3746
rfemur -10.8576 -4.36068 23.2211
rtibia 66.3465
rfoot -3.89417 -7.47014
rtoes 1.44358
lfemur -12.4185 -0.982386 -22.4377
ltibia 27.3144
lfoot -9.89954 -2.96464
ltoes 1.12263
379
root 1.08281 17.9638 35.8341 -2.64184 -3.54504 -1.30994
lowerback 9.64374 0.775034 0.422962
upperback -0.220184 1.14032 1.0588
thorax -5.65807 0.564472 0.703844
lowerneck -16.2752 -2.76302 -1.62736
upperneck 18.9533 -3.64008 1.07221
head 8.65139 -1.71918 0.188441
rclavicle 4.98204e-015 2.00773e-014
rhumerus -28.2309 -23.1134 -77.4511
rradius 22.944
rwrist 9.24793
rhand -15.2366 22.5714
rfingers 7.12502
rthumb 10.9365 -7.12374
lclavicle 4.98204e-015 2.00773e-014
lhumerus -30.2904 2.37492 84.1859
lradius 22.7801
lwrist 7.72201
lhand -25.413 20.6641
lfingers 7.12502
lthumb 1.11271 50.641
rfemur -11.9813 -4.66814 23.219
rtibia 66.7315
rfoot -4.7109 -7.75428
rtoes 2.23019
lfemur -11.8315 -1.21404 -22.597
ltibia 27.3296
lfoot -10.3502 -2.80207
ltoes 1.46116
380
root 1.08173 17.9677 35.9999 -2.57143 -3.32834 -1.4769
lowerback 9.5182 0.675542 0.512938
upperback -0.226708 1.02274 1.16509
thorax -5.59334 0.505728 0.782422
lowerneck -16.1293 -2.81512 -1.74069
upperneck 18.8091 -3.6998 1.14918
head 8.58087 -1.74891 0.228657
rclavicle 3.18055e-015 -1.05356e-014
rhumerus -28.6908 -23.2627 -77.2424
rradius 22.9643
rwrist 9.32882
rhand -14.8809 22.6654
rfingers 7.12502
rthumb 11.2797 -7.01129
lclavicle 3.18055e-015 -1.05356e-014
lhumerus -30.032 1.78719 84.4392
lradius 23.2389
lwrist 8.19252
lhand -25.668 20.7976
lfingers 7.12502
lthumb 0.866397 50.7756
rfemur -13.2067 -4.808 23.5494
rtibia 66.9499
rfoot -5.37288 -7.9839
rtoes 1.86577
lfemur -11.3595 -1.35994 -22.4788
ltibia 27.2822
lfoot -10.695 -2.73768
ltoes 1.78353
